<?xml version="1.0" standalone="no"?>
<!DOCTYPE svg PUBLIC "-//W3C//DTD SVG 20010904//EN"
 "http://www.w3.org/TR/2001/REC-SVG-20010904/DTD/svg10.dtd">
<svg version="1.0" xmlns="http://www.w3.org/2000/svg"
 width="1570.000000pt" height="1570.000000pt" viewBox="0 0 1570.000000 1570.000000"
 preserveAspectRatio="xMidYMid meet">
<metadata>
Created by potrace 1.11, written by Peter Selinger 2001-2013
</metadata>
<g transform="translate(0.000000,1570.000000) scale(0.100000,-0.100000)"
fill="#000000" stroke="none">
<path d="M9240 11118 c-25 -22 -70 -64 -100 -92 -31 -28 -93 -85 -139 -126
-46 -41 -98 -88 -115 -105 -18 -16 -72 -66 -121 -110 -48 -44 -101 -93 -118
-108 -16 -15 -68 -62 -115 -105 -46 -42 -99 -90 -116 -107 -18 -16 -65 -59
-105 -95 -40 -36 -85 -76 -100 -90 -41 -38 -138 -126 -236 -215 -48 -44 -95
-87 -104 -96 -9 -8 -65 -60 -126 -114 -102 -92 -165 -149 -239 -218 -16 -15
-68 -62 -115 -105 -46 -42 -99 -90 -117 -107 -17 -16 -49 -45 -69 -62 -36 -32
-199 -180 -261 -238 -61 -57 -206 -189 -227 -208 -12 -10 -60 -54 -107 -97
-155 -142 -175 -158 -186 -152 -7 4 -36 30 -66 57 -30 28 -96 88 -148 135 -51
47 -114 104 -138 127 -25 24 -75 69 -111 102 -36 32 -82 74 -102 92 -20 19
-74 68 -119 109 -91 83 -100 91 -224 204 -48 44 -102 93 -120 110 -18 17 -77
72 -132 121 -54 50 -110 101 -125 115 -15 14 -67 61 -115 105 -48 44 -99 91
-113 104 -14 12 -62 55 -105 95 -44 39 -94 85 -111 101 -49 48 -105 95 -113
95 -4 0 -15 -12 -24 -27 -9 -16 -28 -41 -42 -58 -14 -16 -26 -33 -26 -37 0 -4
-6 -13 -13 -20 -7 -7 -41 -51 -75 -98 -33 -47 -65 -89 -69 -95 -5 -5 -71 -95
-147 -200 -77 -104 -143 -191 -148 -193 -4 -2 -8 -10 -8 -18 0 -8 -4 -14 -8
-14 -4 0 -16 -15 -27 -32 -10 -18 -23 -37 -27 -43 -33 -40 -49 -62 -98 -130
-30 -43 -67 -92 -83 -110 -15 -18 -27 -37 -27 -43 0 -6 -6 -15 -13 -19 -7 -4
-30 -34 -51 -65 -22 -32 -43 -58 -48 -58 -4 0 -8 -5 -8 -11 0 -11 -89 -132
-102 -137 -4 -2 -8 -10 -8 -17 0 -8 -7 -21 -16 -29 -12 -13 -169 -224 -322
-434 -9 -13 -31 -42 -48 -65 -17 -23 -58 -79 -92 -125 -34 -46 -62 -85 -62
-88 0 -3 -4 -10 -10 -17 -39 -48 -85 -108 -145 -192 -38 -54 -74 -103 -80
-109 -14 -16 -55 -71 -100 -136 -21 -30 -41 -57 -45 -60 -3 -3 -17 -21 -30
-40 -13 -19 -27 -37 -30 -40 -3 -3 -16 -22 -29 -42 -12 -21 -28 -38 -33 -38
-6 0 -9 -3 -5 -6 3 -4 1 -12 -6 -19 -7 -7 -21 -25 -32 -41 -11 -15 -42 -58
-70 -95 -27 -37 -58 -78 -67 -91 -9 -12 -38 -52 -65 -88 -27 -36 -78 -105
-113 -155 -79 -109 -74 -103 -103 -140 -13 -16 -66 -88 -118 -160 -51 -71 -98
-134 -102 -140 -4 -5 -46 -62 -92 -125 -46 -63 -94 -128 -107 -143 -13 -15
-25 -33 -27 -39 -4 -11 -25 -38 -49 -63 -6 -8 -12 -16 -12 -20 0 -3 -5 -11
-10 -18 -12 -13 -93 -122 -210 -282 -105 -144 -138 -189 -148 -200 -4 -5 -23
-32 -42 -60 -19 -27 -46 -64 -60 -82 -14 -17 -50 -66 -80 -108 -30 -42 -63
-86 -72 -96 -10 -10 -18 -21 -18 -24 0 -2 -42 -60 -92 -129 -51 -68 -124 -168
-163 -221 -38 -53 -76 -104 -84 -112 -7 -7 -11 -16 -8 -19 6 -7 14607 -7
14614 -1 4 4 -86 140 -214 324 -24 35 -43 67 -43 72 0 5 -4 11 -8 13 -9 3
-182 256 -182 265 0 2 -6 11 -12 18 -30 33 -38 45 -38 55 0 5 -3 10 -8 10 -4
0 -16 16 -27 36 -10 19 -29 47 -41 61 -12 14 -28 38 -36 52 -7 14 -21 35 -30
45 -10 11 -18 25 -18 32 0 7 -6 17 -12 21 -7 4 -44 55 -82 113 -38 58 -73 107
-78 108 -4 2 -8 8 -8 13 0 5 -15 31 -33 57 -29 41 -92 134 -331 487 -34 50
-64 92 -68 93 -5 2 -8 8 -8 12 0 5 -36 61 -80 124 -44 63 -80 119 -80 124 0 6
-4 12 -8 14 -5 2 -69 93 -143 203 -74 110 -136 202 -139 205 -11 11 -70 101
-70 107 0 3 -10 14 -22 24 -11 11 -18 19 -15 19 7 0 -138 215 -160 238 -6 6
-15 21 -18 32 -3 11 -11 20 -16 20 -5 0 -9 7 -9 15 0 8 -4 15 -10 15 -5 0 -10
7 -10 15 0 8 -4 15 -10 15 -5 0 -10 5 -10 11 0 6 -8 21 -17 34 -10 12 -25 33
-33 45 -8 12 -21 28 -27 36 -7 7 -13 15 -13 18 0 4 -15 28 -33 54 -18 26 -71
103 -118 172 -46 69 -87 127 -91 128 -5 2 -8 8 -8 12 0 5 -27 48 -60 95 -33
47 -60 90 -60 95 0 4 -3 10 -8 12 -4 2 -29 36 -56 76 -27 39 -54 72 -61 72 -6
0 -21 -7 -33 -16 -12 -8 -22 -12 -22 -7 0 4 -4 3 -8 -3 -4 -5 -25 -18 -47 -28
-109 -50 -471 -232 -476 -239 -3 -5 -8 -7 -10 -6 -4 3 -242 -113 -774 -377
-159 -79 -293 -144 -298 -144 -6 0 -107 202 -107 215 0 3 -15 37 -34 77 -19
40 -46 100 -61 133 -15 33 -38 85 -52 115 -25 54 -50 109 -91 200 -11 25 -43
94 -71 153 -28 60 -51 111 -51 113 0 2 -19 44 -41 92 -45 95 -82 174 -84 182
0 3 -13 32 -29 65 -49 107 -64 139 -97 210 -17 39 -53 117 -79 175 -26 58 -61
134 -78 170 -16 36 -53 117 -82 180 -29 63 -70 153 -91 198 -22 46 -39 85 -39
87 0 3 -28 65 -111 243 -21 45 -42 94 -45 107 -3 14 -10 25 -15 25 -5 0 -9 4
-9 10 0 9 -24 64 -77 180 -49 105 -90 195 -117 255 -15 33 -37 81 -49 106
l-23 47 -44 -40z m-115 -1050 c21 -46 40 -87 41 -93 1 -5 22 -53 47 -105 90
-190 125 -268 132 -291 4 -13 14 -32 23 -41 8 -10 12 -18 9 -18 -4 0 2 -17 12
-37 20 -38 46 -94 128 -278 25 -55 58 -126 74 -158 15 -31 29 -61 30 -65 1 -4
16 -39 34 -79 18 -39 39 -87 46 -107 7 -20 17 -36 21 -36 4 0 8 -5 8 -11 0 -5
33 -83 74 -172 40 -89 84 -184 96 -212 13 -27 42 -92 66 -143 24 -52 44 -96
44 -99 0 -2 18 -41 39 -86 79 -164 201 -440 201 -453 0 -8 5 -14 10 -14 6 0
10 -6 10 -12 0 -11 -164 -96 -465 -240 -33 -16 -67 -33 -75 -38 -8 -6 -188
-95 -400 -199 -212 -104 -486 -239 -609 -300 l-225 -111 -30 27 c-16 16 -39
37 -51 48 -12 11 -63 58 -115 105 -126 115 -159 145 -200 184 -19 18 -87 79
-150 137 -63 57 -120 108 -126 114 -6 5 -53 48 -104 95 -123 112 -132 121
-240 220 -51 47 -101 92 -110 100 -10 8 -59 53 -110 100 -105 97 -117 107
-230 210 -45 41 -98 91 -117 110 l-35 35 34 29 c18 16 58 52 88 80 31 28 96
87 144 131 105 95 107 97 225 205 52 47 107 97 123 113 17 15 34 27 39 27 5 0
9 7 9 15 0 8 3 15 8 15 4 0 21 13 38 28 43 38 198 179 249 227 24 22 68 62 99
89 30 26 72 65 93 85 21 20 66 61 99 91 34 30 104 94 155 141 52 48 107 98
123 112 16 15 67 62 114 104 47 43 94 86 104 95 35 30 189 172 235 216 25 23
46 42 48 42 4 0 114 102 138 128 11 12 26 22 32 22 7 0 29 -37 50 -82z m-4396
-768 c14 -14 66 -61 115 -105 49 -44 101 -91 116 -105 15 -14 69 -63 120 -110
51 -47 105 -96 120 -110 15 -14 70 -63 121 -110 52 -47 109 -99 127 -116 17
-18 32 -31 32 -29 0 1 22 -18 48 -44 48 -46 70 -66 252 -231 52 -47 119 -108
149 -137 l56 -52 -55 -51 c-30 -28 -86 -79 -124 -113 -38 -34 -81 -73 -96 -87
-15 -14 -62 -56 -104 -95 -43 -38 -94 -86 -115 -105 -21 -19 -64 -59 -97 -89
-32 -29 -97 -88 -143 -130 -107 -98 -111 -102 -210 -191 -46 -41 -100 -91
-121 -110 -65 -61 -219 -202 -243 -222 -12 -11 -60 -54 -105 -96 -46 -42 -94
-86 -106 -97 -49 -44 -211 -192 -242 -220 -68 -64 -208 -191 -228 -208 -12
-10 -61 -55 -110 -100 -49 -45 -99 -91 -111 -102 -164 -148 -205 -186 -238
-217 -21 -21 -40 -38 -42 -38 -2 0 -24 -19 -48 -42 -24 -24 -77 -72 -117 -108
-99 -89 -116 -104 -185 -169 -34 -31 -101 -92 -149 -136 -49 -44 -94 -85 -101
-92 -7 -6 -30 -12 -51 -13 -22 0 -46 -1 -54 -1 -8 0 -116 0 -240 0 -124 0
-232 0 -240 0 -36 -1 -479 0 -515 1 -22 1 -41 3 -44 5 -2 3 -10 0 -18 -6 -27
-23 -13 14 25 65 22 28 39 55 40 60 0 5 4 12 9 15 5 3 42 51 83 106 41 55 78
102 82 103 4 2 8 9 8 16 0 7 10 23 22 36 13 13 38 47 58 76 36 52 76 106 96
127 6 7 19 26 30 42 21 34 19 31 74 102 22 29 40 57 40 62 0 5 4 11 8 13 8 3
73 89 236 313 36 50 69 95 73 100 5 6 26 35 48 65 22 30 43 57 47 58 5 2 8 8
8 14 0 5 6 15 13 22 6 8 57 75 112 150 55 76 124 170 153 209 29 40 60 81 68
92 21 29 92 126 114 155 10 14 40 54 66 90 26 36 67 91 91 123 23 31 43 61 43
66 0 5 4 11 8 13 5 2 46 55 92 118 46 63 93 127 104 141 12 14 28 36 36 49 8
12 29 41 46 64 136 181 214 289 214 296 0 5 3 10 8 12 4 2 25 28 47 58 46 64
47 65 78 105 13 17 52 70 88 120 35 49 69 97 76 105 7 8 55 74 107 145 52 72
100 135 106 142 5 7 10 17 10 23 0 5 4 10 8 10 5 0 26 26 48 57 21 32 45 65
51 73 7 8 47 61 88 118 83 113 74 110 134 52z m7583 -1458 c9 -15 30 -45 45
-67 16 -22 80 -116 143 -210 63 -93 118 -171 122 -173 4 -2 8 -10 8 -17 0 -7
3 -15 8 -17 4 -1 59 -79 122 -173 148 -221 227 -337 237 -351 4 -5 13 -18 18
-27 6 -9 51 -76 100 -149 50 -73 120 -176 155 -228 35 -52 67 -97 70 -100 3
-3 11 -17 19 -32 8 -16 18 -28 23 -28 4 0 8 -6 8 -14 0 -8 3 -16 8 -18 4 -1
31 -39 60 -83 28 -44 55 -84 60 -90 4 -5 80 -116 167 -245 87 -129 199 -293
247 -364 60 -89 84 -132 76 -137 -7 -4 -20 -3 -29 2 -12 6 -20 5 -24 -1 -4 -6
-10 -8 -15 -5 -6 4 -298 7 -430 4 -8 0 -116 0 -240 0 -124 0 -232 0 -240 0 -8
0 -116 0 -240 0 -124 0 -232 0 -240 0 -8 0 -116 0 -240 0 -124 0 -232 0 -240
0 -107 -3 -160 10 -160 40 0 6 -22 57 -49 115 -27 57 -46 107 -43 110 3 3 0 6
-6 6 -7 0 -12 6 -12 13 0 8 -13 40 -29 73 -15 32 -35 75 -43 94 -17 39 -49
109 -83 185 -22 48 -49 108 -83 185 -8 19 -35 77 -58 128 -24 51 -44 95 -44
98 0 2 -18 43 -40 90 -22 47 -40 88 -40 90 0 3 -28 64 -91 199 -12 28 -23 52
-24 55 -3 8 -21 50 -53 120 -30 67 -53 118 -92 205 -31 69 -60 136 -60 140 0
2 82 43 183 93 100 49 325 160 499 246 175 87 320 156 324 156 4 -1 10 2 13 7
8 11 134 73 149 73 7 0 12 4 12 9 0 9 19 17 45 20 6 0 18 -11 27 -27z m-5821
-152 c21 -20 187 -171 210 -191 10 -9 47 -43 82 -75 72 -67 238 -219 311 -285
27 -24 63 -57 81 -74 18 -16 70 -64 115 -105 45 -41 99 -91 120 -110 21 -19
73 -66 115 -105 43 -38 95 -86 115 -105 75 -71 223 -206 252 -229 l29 -25
-308 -153 c-169 -84 -312 -153 -317 -153 -5 0 -17 -6 -25 -13 -9 -7 -54 -30
-101 -52 -47 -22 -86 -43 -88 -47 -2 -5 -12 -8 -23 -8 -10 0 -19 -5 -19 -10 0
-6 -3 -9 -7 -8 -5 1 -188 -87 -408 -196 -220 -109 -470 -232 -555 -274 -85
-43 -158 -81 -162 -87 -4 -5 -8 -7 -8 -3 0 4 -30 -8 -66 -26 l-67 -33 -995 0
-996 -1 61 57 c84 78 242 222 267 244 19 16 142 129 216 197 15 14 64 59 110
100 46 41 100 91 120 110 21 19 57 52 81 74 52 46 210 190 288 263 31 28 66
60 77 70 12 10 63 56 114 103 136 124 139 127 241 220 51 47 103 94 115 105
12 11 56 51 97 88 42 38 91 83 110 100 18 18 71 66 117 107 45 41 95 86 110
100 15 14 66 61 115 105 48 44 100 91 115 105 15 14 62 57 104 95 43 39 103
95 134 125 l57 55 25 -20 c14 -11 32 -27 41 -35z m4039 -710 c0 -5 14 -40 31
-77 17 -38 49 -108 71 -158 22 -49 55 -123 74 -163 19 -40 34 -75 34 -78 0 -3
13 -32 29 -65 17 -32 27 -59 24 -59 -3 0 1 -8 10 -17 8 -10 16 -20 16 -23 0
-8 16 -49 49 -120 16 -36 29 -67 30 -70 0 -3 12 -27 25 -55 14 -27 27 -57 29
-65 2 -8 5 -17 8 -20 6 -5 54 -110 56 -119 0 -3 13 -33 28 -66 15 -33 36 -80
48 -105 11 -25 29 -62 39 -82 11 -21 20 -40 20 -43 -1 -5 26 -66 85 -193 19
-41 34 -75 34 -77 0 -1 -292 -2 -649 -2 l-649 -1 -41 37 c-22 20 -79 72 -126
116 -96 88 -93 85 -220 200 -48 44 -95 87 -104 95 -9 9 -63 58 -121 110 -57
52 -114 104 -125 115 -30 28 -203 185 -234 213 -25 22 -26 23 -7 37 11 8 26
15 33 15 7 0 13 5 13 10 0 6 5 10 11 10 6 0 162 75 347 166 186 92 346 170
357 175 11 5 27 13 35 19 8 5 123 62 255 126 132 64 243 122 247 128 4 6 8 7
8 2 0 -5 7 -3 15 4 8 7 15 9 15 4 0 -5 4 -4 8 1 6 10 119 68 134 69 3 1 10 4
14 9 11 10 44 9 44 -3z m-2094 -1068 c22 -20 80 -73 129 -117 48 -44 100 -91
115 -105 15 -14 67 -62 116 -106 49 -45 107 -98 129 -119 22 -20 64 -57 92
-83 29 -26 53 -50 53 -53 0 -3 -432 -5 -960 -5 -528 0 -960 2 -960 5 0 7 15
15 299 155 117 58 219 106 226 106 7 0 15 4 17 8 2 4 89 50 193 100 105 51
201 99 215 108 14 8 36 19 50 25 14 5 72 34 130 64 58 29 107 54 110 54 3 1
23 -16 46 -37z"/>
</g>
</svg>
